# xmcd CD database file
#
# Track frame offsets:
#	150
#	17404
#	48026
#	64606
#	74885
#	88164
#	106919
#	126798
#	150502
#	167456
#	184485
#	208340
#	228670
#
# Disc length: 3522 seconds
#
# Revision: 0
# Processed by: cddbd v1.5.2PL0 Copyright (c) Steve Scherf et al.
# Submitted via: CDex 1.51
#
DISCID=b10dc00d
DTITLE=Voxxy Vallejo - Carnival of Confusion
DYEAR=2008
DGENRE=Blues
TTITLE0=Set Me Free
TTITLE1=Bad Woman Blues
TTITLE2=MoonShine Maker
TTITLE3=Gone Again
TTITLE4=Rock On
TTITLE5=Black River
TTITLE6=Fill Me Up
TTITLE7=Crow
TTITLE8=So Damn Hard
TTITLE9=Lovin' Thang
TTITLE10=Our Song
TTITLE11=Take Me For A Ride
TTITLE12=Leave 'Em Cryin'
EXTD=YEAR: 2008
EXTT0=
EXTT1=
EXTT2=
EXTT3=
EXTT4=
EXTT5=
EXTT6=
EXTT7=
EXTT8=
EXTT9=
EXTT10=
EXTT11=
EXTT12=
PLAYORDER=
